<?xml version="1.0" standalone="no"?>
<!DOCTYPE svg PUBLIC "-//W3C//DTD SVG 20010904//EN"
 "http://www.w3.org/TR/2001/REC-SVG-20010904/DTD/svg10.dtd">
<svg version="1.0"
  xmlns="http://www.w3.org/2000/svg" width="512.000000pt" height="512.000000pt" viewBox="0 0 512.000000 512.000000" preserveAspectRatio="xMidYMid meet">

  <g transform="translate(0.000000,512.000000) scale(0.100000,-0.100000)" fill="#000000" stroke="none">
    <path d="M2335 5109 c-495 -46 -982 -241 -1365 -547 -523 -418 -849 -993 -946
-1667 -21 -146 -24 -493 -6 -635 104 -791 542 -1471 1212 -1882 129 -79 195
-113 331 -171 681 -291 1459 -269 2119 59 269 134 483 286 685 489 353 353
602 815 699 1295 20 100 46 300 46 355 l0 44 -25 -24 c-13 -14 -31 -25 -39
-25 -26 0 -64 22 -73 42 -6 15 -12 -17 -21 -108 -56 -570 -318 -1111 -727
-1502 -357 -342 -782 -555 -1276 -642 -174 -31 -466 -38 -653 -16 -259 30
-596 122 -636 174 -25 32 -25 72 0 99 33 36 55 36 168 -1 146 -47 199 -61 322
-85 604 -114 1243 34 1737 402 487 363 790 874 888 1495 l7 43 -26 -25 c-32
-33 -70 -33 -102 -1 -29 29 -26 33 -48 -96 -30 -182 -115 -427 -209 -599 -308
-569 -838 -951 -1481 -1071 -141 -26 -431 -36 -571 -20 -369 42 -696 166 -985
371 -125 89 -150 115 -150 154 0 56 63 101 109 77 11 -6 55 -37 98 -69 454
-339 1030 -458 1578 -327 346 83 642 245 894 489 176 172 285 321 392 538 50
102 121 296 143 390 l6 27 -24 -24 c-34 -34 -71 -32 -107 6 -24 26 -29 28 -29
13 0 -11 -18 -71 -39 -135 -150 -446 -467 -809 -886 -1017 -242 -119 -443
-169 -721 -179 -304 -11 -550 39 -814 163 -617 293 -1010 912 -1010 1594 0
503 222 997 589 1314 266 229 602 284 986 159 101 -33 247 -37 340 -9 363 107
514 522 308 844 -64 101 -177 187 -292 223 -79 25 -246 32 -396 18z"/>
  </g>
</svg>
